<svg version="1.2" xmlns="http://www.w3.org/2000/svg" viewBox="0 0 173 22" width="173" height="22">
	<defs>
		<clipPath clipPathUnits="userSpaceOnUse" id="cp1">
			<path d="m46 2h127v18h-127z"/>
		</clipPath>
	</defs>
	<style>
		.s0 { fill: #34ff67 } 
		.s1 { fill: #ffffff } 
		.s2 { fill: #000000 } 
	</style>
	<path class="s0" d="m19.14 2c0.47 0 0.86 0.39 0.86 0.86v8.14l-10.36 8.79q-0.06 0.05-0.12 0.09-0.07 0.04-0.14 0.07-0.07 0.02-0.15 0.04-0.07 0.01-0.15 0.01h-6.22q-0.17 0-0.33-0.07-0.15-0.06-0.28-0.18-0.12-0.13-0.18-0.28-0.07-0.16-0.07-0.33v-7.74c0-0.25 0.11-0.5 0.31-0.66l10.05-8.54q0.06-0.04 0.12-0.08 0.07-0.04 0.14-0.07 0.07-0.02 0.15-0.04 0.07-0.01 0.15-0.01zm18 0c0.47 0 0.86 0.39 0.86 0.86v7.74q0 0.09-0.02 0.19-0.02 0.09-0.06 0.17-0.04 0.09-0.1 0.16-0.05 0.08-0.12 0.14l-10.06 8.53q-0.06 0.05-0.12 0.09-0.07 0.04-0.14 0.07-0.07 0.02-0.14 0.04-0.08 0.01-0.16 0.01h-6.22q-0.17 0-0.33-0.07-0.15-0.06-0.28-0.18-0.12-0.12-0.18-0.28-0.07-0.16-0.07-0.33v-8.14l10.36-8.79q0.06-0.05 0.12-0.09 0.07-0.04 0.14-0.07 0.07-0.02 0.15-0.04 0.07-0.01 0.15-0.01z"/>
	<g id="Clip-Path" clip-path="url(#cp1)">
		<g>
			<path class="s1" d="m63.45 15.44h-4.94l-8.82-8.95h-0.05v13.51h-3.64v-18h4.35zm3.93 4.56h-3.93v-18h3.93zm19.27 0h-12.08v-3.47h12.08zm44.75-14.89h-6.77v14.89h-3.79v-14.89h-6.77v-3.11h17.33zm20.28 14.89h-17.49v-3.09h17.49zm6.37-18l5.16 5.87 5.16-5.87h4.62l-7.88 9v9h-3.8v-9l-7.88-9zm-57.43 6.83l0.03-0.02 0.02 0.02 6.72-6.83h4.25v3.11h-3.67l-5.41 5.71 5.41 5.71h3.67v3.12h-4.25l-6.72-6.84-0.02 0.02-0.03-0.02-6.71 6.84h-4.25v-3.12h3.67l5.41-5.71-5.41-5.71h-3.67v-3.11h4.25zm50.97-4.09l-12.19 12.16v-4.84h-0.03l7.25-7.24h-12.44v-2.83h17.41zm-65.15 0.37h-11.88v4.25h11.39v2.82h-11.39v4.35h-3.79v-14.53h15.67c0 0 0 3.11 0 3.11z"/>
		</g>
	</g>
	<path id="Layer copy" class="s2" d="m63.45 15.44h-4.94l-8.82-8.95h-0.05v13.51h-3.64v-18h4.35zm3.93 4.56h-3.93v-18h3.93zm19.27 0h-12.08v-3.47h12.08zm44.75-14.89h-6.77v14.89h-3.79v-14.89h-6.77v-3.11h17.33zm20.28 14.89h-17.49v-3.09h17.49zm6.37-18l5.16 5.87 5.16-5.87h4.62l-7.88 9v9h-3.8v-9l-7.88-9zm-57.43 6.83l0.03-0.02 0.02 0.02 6.72-6.83h4.25v3.11h-3.67l-5.41 5.71 5.41 5.71h3.67v3.12h-4.25l-6.72-6.84-0.02 0.02-0.03-0.02-6.71 6.84h-4.25v-3.12h3.67l5.41-5.71-5.41-5.71h-3.67v-3.11h4.25zm50.97-4.09l-12.19 12.16v-4.84h-0.03l7.25-7.24h-12.44v-2.83h17.41zm-65.15 0.37h-11.88v4.25h11.39v2.82h-11.39v4.35h-3.79v-14.53h15.67c0 0 0 3.11 0 3.11z"/>
</svg>